<svg xmlns="http://www.w3.org/2000/svg" width="1200" height="760" viewBox="0 0 1200 760" font-family="ui-sans-serif,system-ui,-apple-system,Segoe UI,Roboto,sans-serif">
<rect width="1200" height="760" fill="#0b0d12"/>
<circle cx="600" cy="385" r="330" fill="#141a2b" opacity="0.5"/>
<circle cx="600" cy="385" r="210" fill="#161d31" opacity="0.5"/>
<line x1="634.1" y1="169.7" x2="738.0" y2="655.9" stroke="#3a4463" stroke-width="1.2" opacity="0.4"/>
<line x1="634.1" y1="169.7" x2="572.2" y2="560.8" stroke="#3a4463" stroke-width="1.2" opacity="0.4"/>
<line x1="815.0" y1="170.0" x2="384.7" y2="350.9" stroke="#3a4463" stroke-width="1.2" opacity="0.4"/>
<line x1="768.3" y1="553.3" x2="572.2" y2="560.8" stroke="#3a4463" stroke-width="1.2" opacity="0.4"/>
<line x1="815.3" y1="419.1" x2="495.2" y2="627.3" stroke="#3a4463" stroke-width="1.2" opacity="0.4"/>
<line x1="870.9" y1="523.0" x2="359.8" y2="571.3" stroke="#3a4463" stroke-width="1.2" opacity="0.4"/>
<line x1="572.2" y1="560.8" x2="495.2" y2="627.3" stroke="#3a4463" stroke-width="1.2" opacity="0.4"/>
<line x1="572.2" y1="560.8" x2="299.7" y2="432.6" stroke="#3a4463" stroke-width="1.2" opacity="0.4"/>
<line x1="495.2" y1="627.3" x2="385.0" y2="170.0" stroke="#3a4463" stroke-width="1.2" opacity="0.4"/>
<line x1="381.6" y1="479.5" x2="572.2" y2="560.8" stroke="#3a4463" stroke-width="1.2" opacity="0.4"/>
<line x1="454.1" y1="573.1" x2="384.7" y2="350.9" stroke="#3a4463" stroke-width="1.2" opacity="0.4"/>
<line x1="562.8" y1="149.9" x2="815.3" y2="419.1" stroke="#3a4463" stroke-width="1.2" opacity="0.4"/>
<rect x="610.1" y="145.7" width="48" height="48" rx="10" fill="#f2b134" opacity="0.13"/>
<rect x="618.1" y="153.7" width="32" height="32" rx="6" fill="#f2b134" stroke="#ffffff33" stroke-width="1.2"/>
<text x="634.1" y="198.7" fill="#8b94a7" font-size="10" text-anchor="middle" opacity="0.8">Who I Am</text>
<rect x="835.8" y="325.6" width="38" height="38" rx="10" fill="#f2b134" opacity="0.13"/>
<rect x="843.8" y="333.6" width="22" height="22" rx="6" fill="#f2b134" stroke="#ffffff33" stroke-width="1.2"/>
<text x="854.8" y="368.6" fill="#8b94a7" font-size="10" text-anchor="middle" opacity="0.8">Timezone</text>
<rect x="793.5" y="148.5" width="43" height="43" rx="10" fill="#f2b134" opacity="0.13"/>
<rect x="801.5" y="156.5" width="27" height="27" rx="6" fill="#f2b134" stroke="#ffffff33" stroke-width="1.2"/>
<text x="815.0" y="196.5" fill="#8b94a7" font-size="10" text-anchor="middle" opacity="0.8">Stack Taste</text>
<rect x="716.5" y="634.4" width="43" height="43" rx="10" fill="#f2547d" opacity="0.13"/>
<rect x="724.5" y="642.4" width="27" height="27" rx="6" fill="#f2547d" stroke="#ffffff33" stroke-width="1.2"/>
<text x="738.0" y="682.4" fill="#8b94a7" font-size="10" text-anchor="middle" opacity="0.8">Terse Replies</text>
<rect x="746.8" y="531.8" width="43" height="43" rx="10" fill="#f2547d" opacity="0.13"/>
<rect x="754.8" y="539.8" width="27" height="27" rx="6" fill="#f2547d" stroke="#ffffff33" stroke-width="1.2"/>
<text x="768.3" y="579.8" fill="#8b94a7" font-size="10" text-anchor="middle" opacity="0.8">No Auto Deploys</text>
<rect x="621.4" y="620.8" width="38" height="38" rx="10" fill="#f2547d" opacity="0.13"/>
<rect x="629.4" y="628.8" width="22" height="22" rx="6" fill="#f2547d" stroke="#ffffff33" stroke-width="1.2"/>
<text x="640.4" y="663.8" fill="#8b94a7" font-size="10" text-anchor="middle" opacity="0.8">Show Tradeoffs</text>
<rect x="791.3" y="395.1" width="48" height="48" rx="10" fill="#f2547d" opacity="0.13"/>
<rect x="799.3" y="403.1" width="32" height="32" rx="6" fill="#f2547d" stroke="#ffffff33" stroke-width="1.2"/>
<text x="815.3" y="448.1" fill="#8b94a7" font-size="10" text-anchor="middle" opacity="0.8">One User First</text>
<rect x="849.4" y="501.5" width="43" height="43" rx="10" fill="#f2547d" opacity="0.13"/>
<rect x="857.4" y="509.5" width="27" height="27" rx="6" fill="#f2547d" stroke="#ffffff33" stroke-width="1.2"/>
<text x="870.9" y="549.5" fill="#8b94a7" font-size="10" text-anchor="middle" opacity="0.8">Backup First</text>
<rect x="540.7" y="529.3" width="63" height="63" rx="10" fill="#4d9dff" opacity="0.13"/>
<rect x="548.7" y="537.3" width="47" height="47" rx="6" fill="#4d9dff" stroke="#ffffff33" stroke-width="1.2"/>
<text x="572.2" y="597.3" fill="#8b94a7" font-size="10" text-anchor="middle" opacity="0.8">Tidebank</text>
<rect x="468.7" y="600.8" width="53" height="53" rx="10" fill="#4d9dff" opacity="0.13"/>
<rect x="476.7" y="608.8" width="37" height="37" rx="6" fill="#4d9dff" stroke="#ffffff33" stroke-width="1.2"/>
<text x="495.2" y="658.8" fill="#8b94a7" font-size="10" text-anchor="middle" opacity="0.8">Pricing V2</text>
<rect x="278.2" y="411.1" width="43" height="43" rx="10" fill="#4d9dff" opacity="0.13"/>
<rect x="286.2" y="419.1" width="27" height="27" rx="6" fill="#4d9dff" stroke="#ffffff33" stroke-width="1.2"/>
<text x="299.7" y="459.1" fill="#8b94a7" font-size="10" text-anchor="middle" opacity="0.8">Onboarding</text>
<rect x="338.3" y="549.8" width="43" height="43" rx="10" fill="#4d9dff" opacity="0.13"/>
<rect x="346.3" y="557.8" width="27" height="27" rx="6" fill="#4d9dff" stroke="#ffffff33" stroke-width="1.2"/>
<text x="359.8" y="597.8" fill="#8b94a7" font-size="10" text-anchor="middle" opacity="0.8">Migrations</text>
<rect x="360.1" y="458.0" width="43" height="43" rx="10" fill="#4d9dff" opacity="0.13"/>
<rect x="368.1" y="466.0" width="27" height="27" rx="6" fill="#4d9dff" stroke="#f2b134aa" stroke-width="1.2"/>
<text x="381.6" y="506.0" fill="#8b94a7" font-size="10" text-anchor="middle" opacity="0.8">Mobile App</text>
<rect x="432.6" y="551.6" width="43" height="43" rx="10" fill="#4d9dff" opacity="0.13"/>
<rect x="440.6" y="559.6" width="27" height="27" rx="6" fill="#4d9dff" stroke="#ffffff33" stroke-width="1.2"/>
<text x="454.1" y="599.6" fill="#8b94a7" font-size="10" text-anchor="middle" opacity="0.8">Ai Categorizer</text>
<rect x="363.5" y="148.5" width="43" height="43" rx="10" fill="#3fd6a8" opacity="0.13"/>
<rect x="371.5" y="156.5" width="27" height="27" rx="6" fill="#3fd6a8" stroke="#ffffff33" stroke-width="1.2"/>
<text x="385.0" y="196.5" fill="#8b94a7" font-size="10" text-anchor="middle" opacity="0.8">Stripe Dash</text>
<rect x="360.7" y="326.9" width="48" height="48" rx="10" fill="#3fd6a8" opacity="0.13"/>
<rect x="368.7" y="334.9" width="32" height="32" rx="6" fill="#3fd6a8" stroke="#ffffff33" stroke-width="1.2"/>
<text x="384.7" y="379.9" fill="#8b94a7" font-size="10" text-anchor="middle" opacity="0.8">Stack Docs</text>
<rect x="541.3" y="128.4" width="43" height="43" rx="10" fill="#3fd6a8" opacity="0.13"/>
<rect x="549.3" y="136.4" width="27" height="27" rx="6" fill="#3fd6a8" stroke="#f2b134aa" stroke-width="1.2"/>
<text x="562.8" y="176.4" fill="#8b94a7" font-size="10" text-anchor="middle" opacity="0.8">Support Inbox</text>
<text x="40" y="52" fill="#cfd6e6" font-size="22" font-weight="600" letter-spacing="3">AURUM RECALL</text>
<text x="41" y="74" fill="#8b94a7" font-size="13" letter-spacing="1">spectral lens · 17 memories · 12 links · color = memory type</text>
<rect x="40" y="716" width="12" height="12" rx="3" fill="#f2b134"/>
<text x="59" y="726" fill="#8b94a7" font-size="12">user</text>
<rect x="190" y="716" width="12" height="12" rx="3" fill="#f2547d"/>
<text x="209" y="726" fill="#8b94a7" font-size="12">feedback</text>
<rect x="340" y="716" width="12" height="12" rx="3" fill="#4d9dff"/>
<text x="359" y="726" fill="#8b94a7" font-size="12">project</text>
<rect x="490" y="716" width="12" height="12" rx="3" fill="#3fd6a8"/>
<text x="509" y="726" fill="#8b94a7" font-size="12">reference</text>
</svg>