<svg xmlns="http://www.w3.org/2000/svg" width="582" height="612" font-family="-apple-system,Segoe UI,sans-serif"><rect width="582" height="612" fill="#0f172a"/><text x="14" y="20" fill="#e2e8f0" font-size="14" font-weight="700">ContextQR · sealed 8×8 layer layer_001</text><text x="568" y="20" fill="#64748b" font-size="10" text-anchor="end">merkle a283a9389cb9…</text><rect x="14" y="44" width="64" height="64" rx="8" fill="#3b82f6" fill-opacity="1" stroke="#f8fafc" stroke-width="2"/><text x="46" y="81" fill="#0f172a" font-size="15" font-weight="800" text-anchor="middle" fill-opacity="0.55">T</text><rect x="84" y="44" width="64" height="64" rx="8" fill="#10b981" fill-opacity="0.82" stroke="#94a3b8" stroke-width="2" stroke-dasharray="4 3"/><text x="116" y="81" fill="#0f172a" font-size="15" font-weight="800" text-anchor="middle" fill-opacity="0.55">H</text><rect x="154" y="44" width="64" height="64" rx="8" fill="#ef4444" fill-opacity="0.82" stroke="#ef4444" stroke-width="3"/><text x="186" y="81" fill="#0f172a" font-size="15" font-weight="800" text-anchor="middle" fill-opacity="0.55">L</text><rect x="224" y="44" width="64" height="64" rx="8" fill="#8b5cf6" fill-opacity="0.5" stroke="#475569" stroke-width="1"/><text x="256" y="81" fill="#0f172a" font-size="15" font-weight="800" text-anchor="middle" fill-opacity="0.55">C</text><text x="276" y="60" font-size="11" text-anchor="middle">🔒</text><rect x="294" y="44" width="64" height="64" rx="8" fill="#f97316" fill-opacity="1" stroke="#D4AF37" stroke-width="3"/><text x="326" y="81" fill="#0f172a" font-size="15" font-weight="800" text-anchor="middle" fill-opacity="0.55">B</text><rect x="364" y="44" width="64" height="64" rx="8" fill="#06b6d4" fill-opacity="1" stroke="#f8fafc" stroke-width="2"/><text x="396" y="81" fill="#0f172a" font-size="15" font-weight="800" text-anchor="middle" fill-opacity="0.55">A</text><rect x="434" y="44" width="64" height="64" rx="8" fill="#6b7280" fill-opacity="0.82" stroke="#94a3b8" stroke-width="2" stroke-dasharray="4 3"/><text x="466" y="81" fill="#0f172a" font-size="15" font-weight="800" text-anchor="middle" fill-opacity="0.55">A</text><rect x="504" y="44" width="64" height="64" rx="8" fill="#e5e7eb" fill-opacity="0.82" stroke="#ef4444" stroke-width="3"/><text x="536" y="81" fill="#0f172a" font-size="15" font-weight="800" text-anchor="middle" fill-opacity="0.55">S</text><text x="556" y="60" font-size="11" text-anchor="middle">🔒</text><rect x="14" y="114" width="64" height="64" rx="8" fill="#D4AF37" fill-opacity="0.5" stroke="#475569" stroke-width="1"/><text x="46" y="151" fill="#0f172a" font-size="15" font-weight="800" text-anchor="middle" fill-opacity="0.55">I</text><rect x="84" y="114" width="64" height="64" rx="8" fill="#3b82f6" fill-opacity="1" stroke="#D4AF37" stroke-width="3"/><text x="116" y="151" fill="#0f172a" font-size="15" font-weight="800" text-anchor="middle" fill-opacity="0.55">T</text><rect x="154" y="114" width="64" height="64" rx="8" fill="#10b981" fill-opacity="1" stroke="#f8fafc" stroke-width="2"/><text x="186" y="151" fill="#0f172a" font-size="15" font-weight="800" text-anchor="middle" fill-opacity="0.55">H</text><rect x="224" y="114" width="64" height="64" rx="8" fill="#ef4444" fill-opacity="0.82" stroke="#94a3b8" stroke-width="2" stroke-dasharray="4 3"/><text x="256" y="151" fill="#0f172a" font-size="15" font-weight="800" text-anchor="middle" fill-opacity="0.55">L</text><text x="276" y="130" font-size="11" text-anchor="middle">🔒</text><rect x="294" y="114" width="64" height="64" rx="8" fill="#8b5cf6" fill-opacity="0.82" stroke="#ef4444" stroke-width="3"/><text x="326" y="151" fill="#0f172a" font-size="15" font-weight="800" text-anchor="middle" fill-opacity="0.55">C</text><rect x="364" y="114" width="64" height="64" rx="8" fill="#f97316" fill-opacity="0.5" stroke="#475569" stroke-width="1"/><text x="396" y="151" fill="#0f172a" font-size="15" font-weight="800" text-anchor="middle" fill-opacity="0.55">B</text><rect x="434" y="114" width="64" height="64" rx="8" fill="#06b6d4" fill-opacity="1" stroke="#D4AF37" stroke-width="3"/><text x="466" y="151" fill="#0f172a" font-size="15" font-weight="800" text-anchor="middle" fill-opacity="0.55">A</text><rect x="504" y="114" width="64" height="64" rx="8" fill="#6b7280" fill-opacity="1" stroke="#f8fafc" stroke-width="2"/><text x="536" y="151" fill="#0f172a" font-size="15" font-weight="800" text-anchor="middle" fill-opacity="0.55">A</text><text x="556" y="130" font-size="11" text-anchor="middle">🔒</text><rect x="14" y="184" width="64" height="64" rx="8" fill="#e5e7eb" fill-opacity="0.82" stroke="#94a3b8" stroke-width="2" stroke-dasharray="4 3"/><text x="46" y="221" fill="#0f172a" font-size="15" font-weight="800" text-anchor="middle" fill-opacity="0.55">S</text><rect x="84" y="184" width="64" height="64" rx="8" fill="#D4AF37" fill-opacity="0.82" stroke="#ef4444" stroke-width="3"/><text x="116" y="221" fill="#0f172a" font-size="15" font-weight="800" text-anchor="middle" fill-opacity="0.55">I</text><rect x="154" y="184" width="64" height="64" rx="8" fill="#3b82f6" fill-opacity="0.5" stroke="#475569" stroke-width="1"/><text x="186" y="221" fill="#0f172a" font-size="15" font-weight="800" text-anchor="middle" fill-opacity="0.55">T</text><rect x="224" y="184" width="64" height="64" rx="8" fill="#10b981" fill-opacity="1" stroke="#D4AF37" stroke-width="3"/><text x="256" y="221" fill="#0f172a" font-size="15" font-weight="800" text-anchor="middle" fill-opacity="0.55">H</text><text x="276" y="200" font-size="11" text-anchor="middle">🔒</text><rect x="294" y="184" width="64" height="64" rx="8" fill="#ef4444" fill-opacity="1" stroke="#f8fafc" stroke-width="2"/><text x="326" y="221" fill="#0f172a" font-size="15" font-weight="800" text-anchor="middle" fill-opacity="0.55">L</text><rect x="364" y="184" width="64" height="64" rx="8" fill="#8b5cf6" fill-opacity="0.82" stroke="#94a3b8" stroke-width="2" stroke-dasharray="4 3"/><text x="396" y="221" fill="#0f172a" font-size="15" font-weight="800" text-anchor="middle" fill-opacity="0.55">C</text><rect x="434" y="184" width="64" height="64" rx="8" fill="#f97316" fill-opacity="0.82" stroke="#ef4444" stroke-width="3"/><text x="466" y="221" fill="#0f172a" font-size="15" font-weight="800" text-anchor="middle" fill-opacity="0.55">B</text><rect x="504" y="184" width="64" height="64" rx="8" fill="#06b6d4" fill-opacity="0.5" stroke="#475569" stroke-width="1"/><text x="536" y="221" fill="#0f172a" font-size="15" font-weight="800" text-anchor="middle" fill-opacity="0.55">A</text><text x="556" y="200" font-size="11" text-anchor="middle">🔒</text><rect x="14" y="254" width="64" height="64" rx="8" fill="#6b7280" fill-opacity="1" stroke="#D4AF37" stroke-width="3"/><text x="46" y="291" fill="#0f172a" font-size="15" font-weight="800" text-anchor="middle" fill-opacity="0.55">A</text><rect x="84" y="254" width="64" height="64" rx="8" fill="#e5e7eb" fill-opacity="1" stroke="#f8fafc" stroke-width="2"/><text x="116" y="291" fill="#0f172a" font-size="15" font-weight="800" text-anchor="middle" fill-opacity="0.55">S</text><rect x="154" y="254" width="64" height="64" rx="8" fill="#D4AF37" fill-opacity="0.82" stroke="#94a3b8" stroke-width="2" stroke-dasharray="4 3"/><text x="186" y="291" fill="#0f172a" font-size="15" font-weight="800" text-anchor="middle" fill-opacity="0.55">I</text><rect x="224" y="254" width="64" height="64" rx="8" fill="#3b82f6" fill-opacity="0.82" stroke="#ef4444" stroke-width="3"/><text x="256" y="291" fill="#0f172a" font-size="15" font-weight="800" text-anchor="middle" fill-opacity="0.55">T</text><text x="276" y="270" font-size="11" text-anchor="middle">🔒</text><rect x="294" y="254" width="64" height="64" rx="8" fill="#10b981" fill-opacity="0.5" stroke="#475569" stroke-width="1"/><text x="326" y="291" fill="#0f172a" font-size="15" font-weight="800" text-anchor="middle" fill-opacity="0.55">H</text><rect x="364" y="254" width="64" height="64" rx="8" fill="#ef4444" fill-opacity="1" stroke="#D4AF37" stroke-width="3"/><text x="396" y="291" fill="#0f172a" font-size="15" font-weight="800" text-anchor="middle" fill-opacity="0.55">L</text><rect x="434" y="254" width="64" height="64" rx="8" fill="#8b5cf6" fill-opacity="1" stroke="#f8fafc" stroke-width="2"/><text x="466" y="291" fill="#0f172a" font-size="15" font-weight="800" text-anchor="middle" fill-opacity="0.55">C</text><rect x="504" y="254" width="64" height="64" rx="8" fill="#f97316" fill-opacity="0.82" stroke="#94a3b8" stroke-width="2" stroke-dasharray="4 3"/><text x="536" y="291" fill="#0f172a" font-size="15" font-weight="800" text-anchor="middle" fill-opacity="0.55">B</text><text x="556" y="270" font-size="11" text-anchor="middle">🔒</text><rect x="14" y="324" width="64" height="64" rx="8" fill="#06b6d4" fill-opacity="0.82" stroke="#ef4444" stroke-width="3"/><text x="46" y="361" fill="#0f172a" font-size="15" font-weight="800" text-anchor="middle" fill-opacity="0.55">A</text><rect x="84" y="324" width="64" height="64" rx="8" fill="#6b7280" fill-opacity="0.5" stroke="#475569" stroke-width="1"/><text x="116" y="361" fill="#0f172a" font-size="15" font-weight="800" text-anchor="middle" fill-opacity="0.55">A</text><rect x="154" y="324" width="64" height="64" rx="8" fill="#e5e7eb" fill-opacity="1" stroke="#D4AF37" stroke-width="3"/><text x="186" y="361" fill="#0f172a" font-size="15" font-weight="800" text-anchor="middle" fill-opacity="0.55">S</text><rect x="224" y="324" width="64" height="64" rx="8" fill="#D4AF37" fill-opacity="1" stroke="#f8fafc" stroke-width="2"/><text x="256" y="361" fill="#0f172a" font-size="15" font-weight="800" text-anchor="middle" fill-opacity="0.55">I</text><text x="276" y="340" font-size="11" text-anchor="middle">🔒</text><rect x="294" y="324" width="64" height="64" rx="8" fill="#3b82f6" fill-opacity="0.82" stroke="#94a3b8" stroke-width="2" stroke-dasharray="4 3"/><text x="326" y="361" fill="#0f172a" font-size="15" font-weight="800" text-anchor="middle" fill-opacity="0.55">T</text><rect x="364" y="324" width="64" height="64" rx="8" fill="#10b981" fill-opacity="0.82" stroke="#ef4444" stroke-width="3"/><text x="396" y="361" fill="#0f172a" font-size="15" font-weight="800" text-anchor="middle" fill-opacity="0.55">H</text><rect x="434" y="324" width="64" height="64" rx="8" fill="#ef4444" fill-opacity="0.5" stroke="#475569" stroke-width="1"/><text x="466" y="361" fill="#0f172a" font-size="15" font-weight="800" text-anchor="middle" fill-opacity="0.55">L</text><rect x="504" y="324" width="64" height="64" rx="8" fill="#8b5cf6" fill-opacity="1" stroke="#D4AF37" stroke-width="3"/><text x="536" y="361" fill="#0f172a" font-size="15" font-weight="800" text-anchor="middle" fill-opacity="0.55">C</text><text x="556" y="340" font-size="11" text-anchor="middle">🔒</text><rect x="14" y="394" width="64" height="64" rx="8" fill="#f97316" fill-opacity="1" stroke="#f8fafc" stroke-width="2"/><text x="46" y="431" fill="#0f172a" font-size="15" font-weight="800" text-anchor="middle" fill-opacity="0.55">B</text><rect x="84" y="394" width="64" height="64" rx="8" fill="#06b6d4" fill-opacity="0.82" stroke="#94a3b8" stroke-width="2" stroke-dasharray="4 3"/><text x="116" y="431" fill="#0f172a" font-size="15" font-weight="800" text-anchor="middle" fill-opacity="0.55">A</text><rect x="154" y="394" width="64" height="64" rx="8" fill="#6b7280" fill-opacity="0.82" stroke="#ef4444" stroke-width="3"/><text x="186" y="431" fill="#0f172a" font-size="15" font-weight="800" text-anchor="middle" fill-opacity="0.55">A</text><rect x="224" y="394" width="64" height="64" rx="8" fill="#e5e7eb" fill-opacity="0.5" stroke="#475569" stroke-width="1"/><text x="256" y="431" fill="#0f172a" font-size="15" font-weight="800" text-anchor="middle" fill-opacity="0.55">S</text><text x="276" y="410" font-size="11" text-anchor="middle">🔒</text><rect x="294" y="394" width="64" height="64" rx="8" fill="#D4AF37" fill-opacity="1" stroke="#D4AF37" stroke-width="3"/><text x="326" y="431" fill="#0f172a" font-size="15" font-weight="800" text-anchor="middle" fill-opacity="0.55">I</text><rect x="364" y="394" width="64" height="64" rx="8" fill="#3b82f6" fill-opacity="1" stroke="#f8fafc" stroke-width="2"/><text x="396" y="431" fill="#0f172a" font-size="15" font-weight="800" text-anchor="middle" fill-opacity="0.55">T</text><rect x="434" y="394" width="64" height="64" rx="8" fill="#10b981" fill-opacity="0.82" stroke="#94a3b8" stroke-width="2" stroke-dasharray="4 3"/><text x="466" y="431" fill="#0f172a" font-size="15" font-weight="800" text-anchor="middle" fill-opacity="0.55">H</text><rect x="504" y="394" width="64" height="64" rx="8" fill="#ef4444" fill-opacity="0.82" stroke="#ef4444" stroke-width="3"/><text x="536" y="431" fill="#0f172a" font-size="15" font-weight="800" text-anchor="middle" fill-opacity="0.55">L</text><text x="556" y="410" font-size="11" text-anchor="middle">🔒</text><rect x="14" y="464" width="64" height="64" rx="8" fill="#8b5cf6" fill-opacity="0.5" stroke="#475569" stroke-width="1"/><text x="46" y="501" fill="#0f172a" font-size="15" font-weight="800" text-anchor="middle" fill-opacity="0.55">C</text><rect x="84" y="464" width="64" height="64" rx="8" fill="#f97316" fill-opacity="1" stroke="#D4AF37" stroke-width="3"/><text x="116" y="501" fill="#0f172a" font-size="15" font-weight="800" text-anchor="middle" fill-opacity="0.55">B</text><rect x="154" y="464" width="64" height="64" rx="8" fill="#06b6d4" fill-opacity="1" stroke="#f8fafc" stroke-width="2"/><text x="186" y="501" fill="#0f172a" font-size="15" font-weight="800" text-anchor="middle" fill-opacity="0.55">A</text><rect x="224" y="464" width="64" height="64" rx="8" fill="#6b7280" fill-opacity="0.82" stroke="#94a3b8" stroke-width="2" stroke-dasharray="4 3"/><text x="256" y="501" fill="#0f172a" font-size="15" font-weight="800" text-anchor="middle" fill-opacity="0.55">A</text><text x="276" y="480" font-size="11" text-anchor="middle">🔒</text><rect x="294" y="464" width="64" height="64" rx="8" fill="#e5e7eb" fill-opacity="0.82" stroke="#ef4444" stroke-width="3"/><text x="326" y="501" fill="#0f172a" font-size="15" font-weight="800" text-anchor="middle" fill-opacity="0.55">S</text><rect x="364" y="464" width="64" height="64" rx="8" fill="#D4AF37" fill-opacity="0.5" stroke="#475569" stroke-width="1"/><text x="396" y="501" fill="#0f172a" font-size="15" font-weight="800" text-anchor="middle" fill-opacity="0.55">I</text><rect x="434" y="464" width="64" height="64" rx="8" fill="#3b82f6" fill-opacity="1" stroke="#D4AF37" stroke-width="3"/><text x="466" y="501" fill="#0f172a" font-size="15" font-weight="800" text-anchor="middle" fill-opacity="0.55">T</text><rect x="504" y="464" width="64" height="64" rx="8" fill="#10b981" fill-opacity="1" stroke="#f8fafc" stroke-width="2"/><text x="536" y="501" fill="#0f172a" font-size="15" font-weight="800" text-anchor="middle" fill-opacity="0.55">H</text><text x="556" y="480" font-size="11" text-anchor="middle">🔒</text><rect x="14" y="534" width="64" height="64" rx="8" fill="#ef4444" fill-opacity="0.82" stroke="#94a3b8" stroke-width="2" stroke-dasharray="4 3"/><text x="46" y="571" fill="#0f172a" font-size="15" font-weight="800" text-anchor="middle" fill-opacity="0.55">L</text><rect x="84" y="534" width="64" height="64" rx="8" fill="#8b5cf6" fill-opacity="0.82" stroke="#ef4444" stroke-width="3"/><text x="116" y="571" fill="#0f172a" font-size="15" font-weight="800" text-anchor="middle" fill-opacity="0.55">C</text><rect x="154" y="534" width="64" height="64" rx="8" fill="#f97316" fill-opacity="0.5" stroke="#475569" stroke-width="1"/><text x="186" y="571" fill="#0f172a" font-size="15" font-weight="800" text-anchor="middle" fill-opacity="0.55">B</text><rect x="224" y="534" width="64" height="64" rx="8" fill="#06b6d4" fill-opacity="1" stroke="#D4AF37" stroke-width="3"/><text x="256" y="571" fill="#0f172a" font-size="15" font-weight="800" text-anchor="middle" fill-opacity="0.55">A</text><text x="276" y="550" font-size="11" text-anchor="middle">🔒</text><rect x="294" y="534" width="64" height="64" rx="8" fill="#6b7280" fill-opacity="1" stroke="#f8fafc" stroke-width="2"/><text x="326" y="571" fill="#0f172a" font-size="15" font-weight="800" text-anchor="middle" fill-opacity="0.55">A</text><rect x="364" y="534" width="64" height="64" rx="8" fill="#e5e7eb" fill-opacity="0.82" stroke="#94a3b8" stroke-width="2" stroke-dasharray="4 3"/><text x="396" y="571" fill="#0f172a" font-size="15" font-weight="800" text-anchor="middle" fill-opacity="0.55">S</text><rect x="434" y="534" width="64" height="64" rx="8" fill="#D4AF37" fill-opacity="0.82" stroke="#ef4444" stroke-width="3"/><text x="466" y="571" fill="#0f172a" font-size="15" font-weight="800" text-anchor="middle" fill-opacity="0.55">I</text><rect x="504" y="534" width="64" height="64" rx="8" fill="#3b82f6" fill-opacity="0.5" stroke="#475569" stroke-width="1"/><text x="536" y="571" fill="#0f172a" font-size="15" font-weight="800" text-anchor="middle" fill-opacity="0.55">T</text><text x="556" y="550" font-size="11" text-anchor="middle">🔒</text></svg>